<svg xmlns="http://www.w3.org/2000/svg" viewBox="195.999 185.735 599.998 599.998">
  <g transform="matrix(10.3448,1.13943e-16,-9.63332e-17,10.3448,-114.345,-2928.05)">
    <path d="M75,359L43,359C35.8,359 30,353.2 30,346L30,314C30,306.8 35.8,301 43,301L75,301C82.2,301 88,306.8 88,314L88,346C88,353.2 82.2,359 75,359Z" fill="#0c2a00" fill-rule="nonzero"/>
  </g>
  <g transform="matrix(0.58312,0,0,0.58312,200.713,181.98)">
    <path d="M338.037,728.161C314.344,724.598 291.005,722.859 267.451,723.746C252.455,724.31 237.598,726.227 222.661,727.291C219.22,727.536 215.44,727.961 213.716,723.689C212.025,719.498 214.337,716.571 217.107,714.043C225.723,706.18 236.339,701.461 246.555,696.31C263.506,687.764 280.897,680.094 297.997,671.838C302.876,669.483 306.426,670.374 309.905,674.306C313.982,678.913 318.181,683.423 323.247,687.05C336.308,696.402 348.069,696.817 361.788,688.386C379.217,677.675 390.391,661.876 398.871,643.695C408.62,622.795 409.172,601.05 406.298,578.68C405.04,568.883 402.029,559.043 404.723,548.987C404.98,548.025 405.133,547.009 405.553,546.121C407.251,542.528 408.69,537.656 412.884,537.421C416.691,537.208 417.257,542.28 418.818,545.241C426.944,560.657 437.351,573.283 455.497,577.297C467.162,579.877 477.611,577.871 486.877,570.202C488.441,568.907 489.783,567.439 490.632,565.59C492.08,562.433 492.972,559.136 490.306,556.257C487.747,553.494 484.654,554.252 481.519,555.483C465.495,561.774 455.328,558.679 445.464,544.461C440.444,537.225 437.819,528.969 435.827,520.499C435.082,517.331 436.012,514.556 438.453,512.36C442.789,508.46 447.182,504.623 451.478,500.68C454.291,498.098 456.923,498.229 459.985,500.391C463.513,502.882 467.199,505.199 471.014,507.219C474.733,509.189 478.785,509.756 482.264,506.715C485.824,503.603 485.166,499.602 483.904,495.614C482.779,492.06 480.784,489.01 478.617,486.034C473.562,479.088 473.403,478.647 478.51,471.601C491.791,453.281 502.811,433.796 510.176,412.316C513.754,401.881 516.453,391.262 517.47,380.276C518.105,373.418 517.305,366.636 515.126,360.081C514.311,357.63 512.92,355.435 509.929,355.408C507.095,355.382 506.006,357.605 505.085,359.791C499.135,373.912 493.313,388.075 486.432,401.798C474.305,425.985 458.554,447.458 439.996,467.107C425.081,482.9 407.914,496.182 392.43,511.308C382.577,520.932 373.742,531.417 369.199,544.637C364.189,559.217 364.544,573.191 376.207,585.035C378.305,587.165 379.272,589.688 379.199,592.707C378.665,614.924 374.004,635.942 361.811,654.933C352.281,669.776 345.397,670.58 332.778,658.263C320.497,646.276 313.701,631.161 307.734,615.513C306.489,612.247 305.167,609.006 303.74,605.816C302.998,604.158 302.111,602.361 299.86,602.443C297.729,602.52 296.757,604.179 295.869,605.81C290.17,616.274 289.34,627.314 292.059,638.746C292.521,640.687 293.193,642.579 293.779,644.49C296.846,654.499 296.853,654.506 288.352,661.002C280.858,666.73 273.147,671.534 263.168,667.102C260.393,665.87 257.868,664.266 255.635,662.252C235.032,643.664 223.924,620.459 223.236,592.756C222.566,565.843 230.855,541.354 245.006,518.606C254.648,503.107 266.52,489.356 278.109,475.4C293.939,456.336 302.806,434.745 304.928,409.996C307.228,383.15 310.567,356.457 319.358,330.696C332.726,291.522 356.465,260.192 389.85,236.104C426.252,209.839 467.393,196.019 511.662,190.76C560.99,184.9 608.397,192.063 653.435,212.949C690.165,229.983 721.339,253.859 741.538,289.928C755.047,314.051 763.79,340.123 771.388,366.562C773.968,375.539 772.723,384.622 767.504,392.517C762.463,400.142 763.648,406.879 767.972,414.345C781.998,438.562 795.651,462.995 809.411,487.366C810.47,489.242 811.389,491.228 812.12,493.254C816.119,504.33 810.158,513.983 798.448,515.281C782.542,517.044 766.887,514.83 751.313,511.908C747.756,511.24 744.487,510.908 742.848,514.85C741.208,518.795 743.836,521.038 746.71,523.038C751.185,526.152 756.316,527.561 761.515,528.813C768.072,530.392 769.762,532.336 769.998,539.165C770.177,544.324 770.048,549.492 770.101,554.656C770.15,559.362 767.707,561.734 763.168,562.089C749.399,563.166 735.629,564.242 721.853,565.238C717.354,565.564 712.881,565.993 708.594,567.44C706.342,568.201 703.999,569.324 704.308,572.216C704.654,575.45 707.329,575.887 709.933,575.897C724.097,575.955 738.295,576.569 752.418,575.813C768.987,574.926 771.842,586.216 768.008,597.154C763.75,609.302 763.561,620.265 767.065,632.563C773.9,656.556 758.611,682.32 733.539,691.529C730.884,692.504 728.249,693.938 725.51,694.211C716.126,695.147 710.358,700.598 704.723,707.755C689.298,727.345 669.849,741.97 646.602,751.332C645.215,751.891 643.819,752.463 642.844,753.882C643.266,756.498 645.737,756.785 647.547,757.663C670.591,768.842 692.42,781.904 711.206,799.501C721.169,808.833 731.092,818.291 737.951,830.343C738.932,832.067 739.738,833.932 740.335,835.823C741.987,841.057 739.541,844.769 734.004,845.158C731.04,845.367 727.932,845.406 725.059,844.761C695.512,838.127 665.859,831.888 636.511,824.454C596.24,814.255 557.605,799.06 518.892,784.181C476.145,767.751 433.572,750.803 389.277,738.804C372.559,734.276 355.664,730.521 338.037,728.161M493.903,274.344C473.978,309.81 457.241,346.822 440.792,383.97C440.099,385.536 438.918,387.226 440.245,389.128C442.749,389.773 443.809,387.782 445.173,386.453C463.923,368.175 479.115,347.161 492.014,324.498C500.405,309.754 506.629,294.196 505.759,276.706C505.578,273.081 505.968,268.697 501.531,267.528C496.934,266.318 496.252,271.087 493.903,274.344M690.208,401.645C695.6,399.941 701.048,398.482 706.659,397.671C713.23,396.721 719.793,395.714 726.356,394.711C733.371,393.639 736.671,390.019 735.818,384.369C735.173,380.103 731.619,377.644 725.171,377.348C708.49,376.582 694.475,383.313 681.681,393.2C679.472,394.907 677.636,397.135 675.801,399.272C674.73,400.517 673.681,402.123 674.774,403.799C675.874,405.484 677.798,405.048 679.353,404.679C682.744,403.874 686.073,402.811 690.208,401.645M719.565,444.866C726.761,444.284 731.744,440.656 733.445,434.759C735.125,428.939 732.996,422.623 728.219,419.253C723.169,415.69 717.163,415.571 711.874,418.929C707.39,421.775 704.565,428.12 705.55,433.133C706.794,439.466 711.338,443.498 719.565,444.866Z" fill="#d4ec7d" fill-rule="nonzero"/>
  </g>
</svg>
